<?xml version="1.0" encoding="utf-8"?>
<!-- Generator: Adobe Illustrator 18.1.1, SVG Export Plug-In . SVG Version: 6.00 Build 0)  -->
<!DOCTYPE svg PUBLIC "-//W3C//DTD SVG 1.1//EN" "http://www.w3.org/Graphics/SVG/1.1/DTD/svg11.dtd">
<svg version="1.1" id="Layer_1" xmlns="http://www.w3.org/2000/svg" xmlns:xlink="http://www.w3.org/1999/xlink" x="0px" y="0px"
	 viewBox="0 0 125.7 34" enable-background="new 0 0 125.7 34" xml:space="preserve">
<g>
	<path fill="#FF2D55" d="M24.2,14.6H13.6c-0.3,0-0.5,0.2-0.5,0.5v5.2c0,0.3,0.2,0.5,0.5,0.5h4.1v6.4c0,0-0.9,0.3-3.5,0.3
		c-3,0-7.2-1.1-7.2-10.4c0-9.3,4.4-10.5,8.5-10.5c3.6,0,5.1,0.6,6.1,0.9C22,7.6,22.2,7.3,22.2,7l1.2-5c0-0.1,0-0.3-0.2-0.4
		C22.8,1.4,20.4,0,14.3,0C7.2,0,0,3,0,17.4C0,31.9,8.3,34,15.3,34c5.8,0,9.3-2.5,9.3-2.5c0.1-0.1,0.2-0.3,0.2-0.4V15
		C24.7,14.8,24.5,14.6,24.2,14.6z"/>
	<path fill="#FF2D55" d="M78.7,1.7c0-0.3-0.2-0.5-0.5-0.5h-5.9c-0.3,0-0.5,0.2-0.5,0.5c0,0,0,11.5,0,11.5h-9.3V1.7
		c0-0.3-0.2-0.5-0.5-0.5H56c-0.3,0-0.5,0.2-0.5,0.5v31.1c0,0.3,0.2,0.5,0.5,0.5H62c0.3,0,0.5-0.2,0.5-0.5V19.5h9.3
		c0,0,0,13.3,0,13.3c0,0.3,0.2,0.5,0.5,0.5h6c0.3,0,0.5-0.2,0.5-0.5V1.7z"/>
	<g>
		<g>
			<path fill="#FF2D55" d="M35.4,5.8c0-2.1-1.7-3.9-3.8-3.9c-2.1,0-3.8,1.7-3.8,3.9c0,2.1,1.7,3.9,3.8,3.9C33.7,9.7,35.4,8,35.4,5.8
				z"/>
			<path fill="#FF2D55" d="M35,26.3c0-0.8,0-14.4,0-14.4c0-0.3-0.2-0.5-0.5-0.5h-5.9c-0.3,0-0.5,0.3-0.5,0.6c0,0,0,17.3,0,20.6
				c0,0.6,0.4,0.8,0.9,0.8c0,0,2.5,0,5.3,0c0.6,0,0.7-0.3,0.7-0.8C35,31.5,35,27.1,35,26.3z"/>
		</g>
	</g>
	<path fill="#FF2D55" d="M101.3,11.5h-5.9c-0.3,0-0.5,0.2-0.5,0.5v15.3c0,0-1.5,1.1-3.6,1.1c-2.1,0-2.7-1-2.7-3c0-2.1,0-13.3,0-13.3
		c0-0.3-0.2-0.5-0.5-0.5h-6c-0.3,0-0.5,0.2-0.5,0.5c0,0,0,8.1,0,14.3c0,6.2,3.5,7.7,8.2,7.7c3.9,0,7-2.2,7-2.2S97,33,97,33.1
		c0.1,0.1,0.2,0.3,0.4,0.3l3.8,0c0.3,0,0.5-0.2,0.5-0.5l0-20.9C101.8,11.7,101.5,11.5,101.3,11.5z"/>
	<path fill="#FF2D55" d="M117.4,10.8c-3.4,0-5.6,1.5-5.6,1.5V1.7c0-0.3-0.2-0.5-0.5-0.5h-6c-0.3,0-0.5,0.2-0.5,0.5v31.1
		c0,0.3,0.2,0.5,0.5,0.5c0,0,4.1,0,4.1,0c0.2,0,0.3-0.1,0.4-0.3c0.1-0.2,0.3-1.4,0.3-1.4s2.4,2.3,7.1,2.3c5.4,0,8.5-2.7,8.5-12.3
		C125.7,12,120.8,10.8,117.4,10.8z M115.1,28.3c-2-0.1-3.4-1-3.4-1v-9.9c0,0,1.4-0.8,3.1-1c2.1-0.2,4.2,0.5,4.2,5.5
		C118.9,27.3,117.9,28.4,115.1,28.3z"/>
	<path fill="#FF2D55" d="M52.1,11.4h-4.5c0,0,0-5.9,0-5.9c0-0.2-0.1-0.3-0.4-0.3h-6.1c-0.2,0-0.4,0.1-0.4,0.3v6.1c0,0-3,0.7-3.3,0.8
		c-0.2,0.1-0.4,0.2-0.4,0.5v3.8c0,0.3,0.2,0.5,0.5,0.5h3.1c0,0,0,4,0,9.2c0,6.8,4.8,7.5,8,7.5c1.5,0,3.2-0.5,3.5-0.6
		c0.2-0.1,0.3-0.2,0.3-0.4l0-4.2c0-0.3-0.2-0.5-0.5-0.5c-0.3,0-0.9,0.1-1.6,0.1c-2.2,0-2.9-1-2.9-2.3c0-1.3,0-8.8,0-8.8h4.5
		c0.3,0,0.5-0.2,0.5-0.5v-4.8C52.6,11.6,52.4,11.4,52.1,11.4z"/>
</g>
</svg>
