<?xml version="1.0" encoding="utf-8"?>
<!-- Generator: Adobe Illustrator 18.1.1, SVG Export Plug-In . SVG Version: 6.00 Build 0)  -->
<!DOCTYPE svg PUBLIC "-//W3C//DTD SVG 1.1//EN" "http://www.w3.org/Graphics/SVG/1.1/DTD/svg11.dtd">
<svg version="1.1" id="Layer_1" xmlns="http://www.w3.org/2000/svg" xmlns:xlink="http://www.w3.org/1999/xlink" x="0px" y="0px"
	 viewBox="0 0 134.2 34" enable-background="new 0 0 134.2 34" xml:space="preserve">
<g>
	<g>
		<g>
			<polygon fill="#FF2D55" points="0,5 5.2,5 5.2,24.1 15,24.1 15,29 0,29 			"/>
			<g>
				<path fill="#FF2D55" d="M17.3,12.7h5V29h-5V12.7z M19.8,4.7c1.6,0,2.9,1.3,2.9,2.9c0,1.6-1.3,2.9-2.9,2.9
					c-1.6,0-2.9-1.3-2.9-2.9C16.9,6,18.2,4.7,19.8,4.7"/>
			</g>
			<polygon fill="#FF2D55" points="43.4,5 48.4,5 48.4,19.3 54.1,12.7 60.3,12.7 53.7,20.2 60.2,29 53.8,29 48.5,21 48.4,21 
				48.4,29 43.4,29 			"/>
			<path fill="#FF2D55" d="M25.1,12.7h4.8V15H30c0.7-1.3,2.3-2.6,4.8-2.6c5.1,0,6,3.4,6,7.7V29h-5v-7.9c0-1.9,0-4.3-2.6-4.3
				c-2.6,0-3,2.1-3,4.2v8h-5V12.7z"/>
			<path fill="#FF2D55" d="M70.9,19c0-1.7-1.3-3.1-3.1-3.1c-2.2,0-3.4,1.5-3.6,3.1H70.9z M75.2,26.2c-1.6,2.1-4.3,3.2-6.9,3.2
				c-5,0-9.1-3.4-9.1-8.6c0-5.2,4-8.6,9.1-8.6c4.7,0,7.7,3.4,7.7,8.6v1.6H64.3c0.4,1.9,1.8,3.2,3.8,3.2c1.6,0,2.8-0.8,3.6-2
				L75.2,26.2z"/>
			<path fill="#FF2D55" d="M86.5,16.7c-2.5,0-4,1.7-4,4.1c0,2.5,1.5,4.1,4,4.1c2.5,0,4-1.7,4-4.1C90.5,18.3,89,16.7,86.5,16.7
				 M95.1,29h-4.6v-2.2h-0.1c-0.8,1.2-2.7,2.6-5,2.6c-4.8,0-8-3.5-8-8.4c0-4.5,2.8-8.7,7.5-8.7c2.1,0,4,0.6,5.2,2.2h0.1V5h5V29z"/>
		</g>
		<path fill="#FF2D55" d="M131.7,0h-29c-1.4,0-2.5,1.1-2.5,2.4v29.1c0,1.4,1.1,2.5,2.5,2.5h29c1.4,0,2.5-1.1,2.5-2.5V2.4
			C134.2,1.1,133.1,0,131.7,0z M110.3,29h-5V12.7h5V29z M107.7,10.5c-1.6,0-2.9-1.3-2.9-2.9c0-1.6,1.3-2.9,2.9-2.9
			c1.6,0,2.9,1.3,2.9,2.9C110.7,9.2,109.4,10.5,107.7,10.5z M129.2,29h-5v-7.9c0-1.9,0-4.3-2.6-4.3c-2.6,0-3,2-3,4.2v8h-5V12.7h4.8
			V15h0.1c0.7-1.3,2.3-2.6,4.8-2.6c5.1,0,6,3.4,6,7.7V29z"/>
	</g>
</g>
</svg>
